<svg xmlns="http://www.w3.org/2000/svg" xmlns:xlink="http://www.w3.org/1999/xlink" id="Layer_1" width="512" height="512" x="0" y="0" enable-background="new 0 0 512 512" version="1.1" viewBox="0 0 512 512" xml:space="preserve"><g><path fill="#00C07C" d="M489.185,50H230.418c-4.141,0-7.5,3.359-7.5,7.5c0,4.145,3.359,7.5,7.5,7.5h258.77 c4.305,0,7.809,3.504,7.809,7.813v228.344c0,4.141,3.359,7.5,7.5,7.5c4.145,0,7.5-3.359,7.5-7.5V72.813 C511.997,60.235,501.767,50,489.185,50z"/><path fill="#00C07C" stroke="#00C07C" stroke-miterlimit="10" d="M504.497,326.316c-4.145,0-7.5,3.354-7.5,7.5v14.828h-482V72.813 c0-4.309,3.504-7.813,7.809-7.813h110.457c4.141,0,7.5-3.355,7.5-7.5c0-4.141-3.359-7.5-7.5-7.5H22.806 C10.227,50-0.003,60.235-0.003,72.813v322.058c0,9.766,7.945,17.711,17.711,17.711h181.758v36.344h-30.969 c-4.141,0-7.5,3.359-7.5,7.5c0,4.146,3.359,7.5,7.5,7.5h175c4.145,0,7.5-3.354,7.5-7.5c0-4.141-3.355-7.5-7.5-7.5h-30.969v-36.344 h181.758c9.766,0,17.711-7.945,17.711-17.711v-61.055C511.997,329.672,508.642,326.316,504.497,326.316z M297.528,448.926h-83.064 v-36.344h83.064V448.926z M494.286,397.582H17.708c-1.496,0-2.711-1.215-2.711-2.711v-31.227h482v31.227 C496.997,396.367,495.782,397.582,494.286,397.582z"/><path fill="#00C07C" stroke="#00C07C" stroke-miterlimit="10" d="M165.922,65h31.836c4.141,0,7.5-3.355,7.5-7.5 c0-4.141-3.359-7.5-7.5-7.5h-31.836c-4.141,0-7.5,3.359-7.5,7.5C158.422,61.645,161.782,65,165.922,65z"/><path fill="#00C07C" stroke="#00C07C" stroke-miterlimit="10" d="M46.372,106.649c-4.141,0-7.5,3.355-7.5,7.5v199.042 c0,4.141,3.359,7.5,7.5,7.5h58.406c4.141,0,7.5-3.359,7.5-7.5V114.149c0-4.145-3.359-7.5-7.5-7.5H46.372z M97.277,121.649v9.055 H53.872v-9.055H97.277z M53.872,305.692V145.704h43.406v159.988H53.872z"/><path fill="#00C07C" stroke="#00C07C" stroke-miterlimit="10" d="M413.681,188.047h58.406c4.145,0,7.5-3.355,7.5-7.5v-66.398 c0-4.145-3.355-7.5-7.5-7.5h-58.406c-4.141,0-7.5,3.355-7.5,7.5v66.398C406.181,184.692,409.54,188.047,413.681,188.047z M421.181,173.047V145.7h43.406v27.348L421.181,173.047L421.181,173.047z M464.587,121.649v9.055h-43.406v-9.055H464.587z"/><path fill="#00C07C" stroke="#00C07C" stroke-miterlimit="10" d="M406.181,286.872c0,4.145,3.359,7.5,7.5,7.5h58.406 c4.145,0,7.5-3.355,7.5-7.5v-66.398c0-4.145-3.355-7.5-7.5-7.5h-58.406c-4.141,0-7.5,3.355-7.5,7.5V286.872z M421.181,279.372 v-27.348h43.406v27.348H421.181L421.181,279.372z M464.587,227.974v9.051h-43.406v-9.051H464.587z"/><path fill="#00C07C" stroke="#00C07C" stroke-miterlimit="10" d="M146.609,250.625c0,12.06,9.816,21.871,21.875,21.871 c5.492,0,10.512-2.035,14.355-5.392l51.547,28.56c-0.172,1.104-0.266,2.242-0.266,3.396c0,12.062,9.813,21.874,21.875,21.874 c12.06,0,21.871-9.813,21.871-21.874c0-1.152-0.09-2.289-0.262-3.396l51.543-28.56c3.844,3.353,8.867,5.392,14.355,5.392 c12.063,0,21.875-9.813,21.875-21.875c0-9.427-5.996-17.479-14.375-20.547v-46.457c8.379-3.07,14.375-11.121,14.375-20.551 c0-12.063-9.813-21.875-21.875-21.875c-5.477,0-10.484,2.027-14.324,5.363l-51.578-28.574c0.176-1.105,0.266-2.238,0.266-3.395 c0-12.063-9.813-21.875-21.875-21.875c-12.059,0-21.871,9.813-21.871,21.875c0,1.152,0.09,2.289,0.266,3.395l-51.578,28.574 c-3.84-3.336-8.848-5.363-14.324-5.363c-12.063,0-21.875,9.813-21.875,21.875c0,9.426,5.996,17.48,14.375,20.547v46.461 C152.605,233.142,146.609,241.196,146.609,250.625z M255.997,136.461c5.477,0,10.485-2.027,14.325-5.367l51.578,28.578 c-0.172,1.105-0.268,2.238-0.268,3.395c0,1.157,0.096,2.293,0.268,3.398l-51.578,28.574c-3.84-3.336-8.848-5.363-14.325-5.363 c-5.476,0-10.484,2.027-14.324,5.363l-51.578-28.574c0.176-1.105,0.266-2.242,0.266-3.398c0-1.156-0.094-2.289-0.266-3.395 l51.578-28.574C245.513,134.434,250.52,136.461,255.997,136.461z M321.634,250.625c0,1.142,0.09,2.263,0.258,3.354l-51.57,28.57 c-1.992-1.734-4.297-3.117-6.824-4.039v-46.414c8.379-3.065,14.375-11.121,14.375-20.551c0-1.156-0.094-2.289-0.266-3.395 l51.578-28.574c1.992,1.73,4.297,3.113,6.824,4.039v46.457C327.63,233.142,321.634,241.196,321.634,250.625z M262.872,211.547 c0,3.793-3.086,6.875-6.875,6.875c-3.789,0-6.875-3.082-6.875-6.875c0-3.789,3.086-6.871,6.875-6.871 C259.786,204.676,262.872,207.758,262.872,211.547z M182.81,179.579l51.578,28.574c-0.172,1.108-0.266,2.242-0.266,3.397 c0,9.427,5.996,17.48,14.375,20.548v46.414c-2.527,0.926-4.832,2.309-6.824,4.038l-51.57-28.569 c0.168-1.094,0.258-2.215,0.258-3.355c0-9.43-5.996-17.484-14.375-20.551v-46.457C178.513,182.692,180.816,181.309,182.81,179.579z M168.484,257.497c-3.789,0-6.875-3.082-6.875-6.871c0-3.793,3.086-6.875,6.875-6.875c3.793,0,6.875,3.082,6.875,6.875 C175.359,254.415,172.278,257.497,168.484,257.497z M255.997,305.935c-3.789,0-6.875-3.086-6.875-6.875s3.086-6.875,6.875-6.875 c3.79,0,6.875,3.086,6.875,6.875S259.786,305.935,255.997,305.935z M343.509,257.497c-3.789,0-6.875-3.082-6.875-6.871 c0-3.793,3.086-6.875,6.875-6.875s6.875,3.082,6.875,6.875C350.384,254.415,347.298,257.497,343.509,257.497z M343.509,156.192 c3.789,0,6.875,3.086,6.875,6.875s-3.086,6.875-6.875,6.875s-6.875-3.086-6.875-6.875S339.72,156.192,343.509,156.192z M255.997,107.711c3.79,0,6.875,3.086,6.875,6.875s-3.086,6.875-6.875,6.875c-3.789,0-6.875-3.086-6.875-6.875 S252.208,107.711,255.997,107.711z M168.484,156.192c3.793,0,6.875,3.086,6.875,6.875s-3.082,6.875-6.875,6.875 c-3.789,0-6.875-3.086-6.875-6.875S164.696,156.192,168.484,156.192z"/></g></svg>