<svg xmlns="http://www.w3.org/2000/svg" xmlns:xlink="http://www.w3.org/1999/xlink" id="Capa_1" width="560" height="590" x="0" y="0" enable-background="new 0 0 560 590" version="1.1" viewBox="0 0 560 590" xml:space="preserve"><g><g><path fill="#00C07C" d="M439.688,196.563c-6.037,0-10.938,4.9-10.938,10.938s4.9,10.938,10.938,10.938s10.938-4.9,10.938-10.938 S445.725,196.563,439.688,196.563z"/></g></g><g><g><path fill="#00C07C" d="M527.188,152.813H407.072l-34.679-69.358c-5.597-11.19-16.843-18.142-29.35-18.142H216.956 c-12.509,0-23.755,6.952-29.35,18.143l-34.678,69.357H131.25v-10.938c0-18.093-14.72-32.813-32.813-32.813H76.563 c-18.093,0-32.813,14.72-32.813,32.813v10.938H32.813C14.72,152.813,0,167.532,0,185.625c0,29.723,0,294.688,0,306.25 c0,18.093,14.72,32.813,32.813,32.813h494.375c18.093,0,32.813-14.72,32.813-32.813c0-29.723,0-294.688,0-306.25 C560,167.532,545.28,152.813,527.188,152.813z M207.173,93.238c1.866-3.732,5.614-6.051,9.783-6.051h126.088 c4.169,0,7.919,2.319,9.784,6.051l29.787,59.574H177.384L207.173,93.238z M65.625,141.875c0-6.031,4.907-10.938,10.938-10.938 h21.875c6.031,0,10.938,4.907,10.938,10.938v10.938h-43.75V141.875z M21.875,262.078h138.306 c-14.536,22.708-22.368,49.319-22.368,76.672c0,27.354,7.833,53.859,22.367,76.563H21.875V262.078z M280,218.438 c65.771,0,120.313,53.287,120.313,120.313c0,66.95-54.466,120.313-120.313,120.313c-65.906,0-120.313-53.421-120.313-120.313 C159.688,271.807,214.146,218.438,280,218.438z M538.125,491.875c0,6.031-4.906,10.938-10.938,10.938H32.813 c-6.031,0-10.938-4.906-10.938-10.938v-54.688h155.56c26.726,27.86,63.819,43.75,102.565,43.75 c38.753,0,75.85-15.895,102.566-43.75h155.559V491.875z M538.125,415.313H399.819c14.536-22.707,22.368-49.209,22.368-76.563 s-7.832-53.855-22.368-76.563h138.306V415.313z M538.125,240.313h-155.56c-26.725-27.86-63.818-43.75-102.565-43.75 c-38.751,0-75.848,15.895-102.566,43.75H21.875v-54.688c0-6.031,4.907-10.938,10.938-10.938c9.932,0,478.999,0,494.375,0 c6.031,0,10.938,4.907,10.938,10.938V240.313z"/></g></g><g><g><path fill="#00C07C" d="M312.813,109.063h-65.625c-6.041,0-10.938,4.896-10.938,10.938s4.896,10.938,10.938,10.938h65.625 c6.04,0,10.938-4.896,10.938-10.938S318.853,109.063,312.813,109.063z"/></g></g><g><g><path fill="#00C07C" d="M280,240.313c-54.278,0-98.438,44.159-98.438,98.438s44.159,98.438,98.438,98.438 s98.438-44.159,98.438-98.438S334.278,240.313,280,240.313z M280,415.313c-42.217,0-76.563-34.346-76.563-76.563 s34.346-76.563,76.563-76.563s76.563,34.346,76.563,76.563S322.217,415.313,280,415.313z"/></g></g><g><g><path fill="#00C07C" d="M280,284.063c-30.155,0-54.688,24.533-54.688,54.688c0,6.041,4.896,10.938,10.938,10.938 s10.938-4.896,10.938-10.938c0-18.093,14.72-32.813,32.813-32.813c6.039,0,10.938-4.896,10.938-10.938 S286.039,284.063,280,284.063z"/></g></g><g><g><path fill="#00C07C" d="M505.313,196.563h-21.875c-6.04,0-10.938,4.896-10.938,10.938s4.897,10.938,10.938,10.938h21.875 c6.04,0,10.938-4.896,10.938-10.938S511.353,196.563,505.313,196.563z"/></g></g></svg>