<?xml version="1.0" encoding="utf-8"?>
<!-- Generator: Adobe Illustrator 16.2.0, SVG Export Plug-In . SVG Version: 6.00 Build 0)  -->
<!DOCTYPE svg PUBLIC "-//W3C//DTD SVG 1.1//EN" "http://www.w3.org/Graphics/SVG/1.1/DTD/svg11.dtd">
<svg version="1.1" id="Layer_1" xmlns="http://www.w3.org/2000/svg" xmlns:xlink="http://www.w3.org/1999/xlink" x="0px" y="0px"
	 width="511px" height="511px" viewBox="0 0 511 511" enable-background="new 0 0 511 511" xml:space="preserve">
<path fill="#00C07C" d="M58.846,187.18c1.458,1.458,3.372,2.191,5.286,2.191c1.915,0,3.829-0.729,5.291-2.191
	c2.92-2.92,2.92-7.657,0-10.577l-18.16-18.16l18.16-18.156c2.92-2.924,2.92-7.657,0-10.577c-2.92-2.92-7.657-2.92-10.577,0
	l-23.447,23.446c-1.403,1.404-2.191,3.306-2.191,5.287c0,1.984,0.788,3.887,2.191,5.291L58.846,187.18z"/>
<path fill="#00C07C" d="M133.061,158.443l-18.16,18.16c-2.92,2.92-2.92,7.657,0.004,10.577c1.458,1.458,3.373,2.191,5.287,2.191
	c1.915,0,3.829-0.733,5.287-2.191l23.45-23.45c2.92-2.92,2.92-7.657,0-10.573l-23.45-23.45c-2.92-2.92-7.653-2.92-10.573,0
	c-2.924,2.924-2.924,7.657,0,10.577L133.061,158.443z"/>
<path fill="#00C07C" d="M81.014,188.853c0.896,0.351,1.825,0.519,2.733,0.519c2.986,0,5.805-1.801,6.963-4.745l18.421-46.897
	c1.512-3.844-0.382-8.183-4.227-9.696c-3.84-1.509-8.183,0.382-9.692,4.226l-18.425,46.896
	C75.279,183.001,77.169,187.344,81.014,188.853z"/>
<path fill="#00C07C" d="M44.92,233.247h50.382c4.128,0,7.478-3.349,7.478-7.481c0-4.128-3.349-7.478-7.478-7.478H44.92
	c-4.132,0-7.478,3.349-7.478,7.478C37.442,229.897,40.788,233.247,44.92,233.247z"/>
<path fill="#00C07C" d="M211.341,218.288h-88.577c-4.129,0-7.478,3.349-7.478,7.478c0,4.132,3.349,7.481,7.478,7.481h88.577
	c4.132,0,7.481-3.349,7.481-7.481C218.823,221.637,215.474,218.288,211.341,218.288z"/>
<path fill="#00C07C" d="M44.92,264.791h21.462c4.129,0,7.478-3.35,7.478-7.482c0-4.128-3.349-7.477-7.478-7.477H44.92
	c-4.132,0-7.478,3.349-7.478,7.477C37.442,261.441,40.788,264.791,44.92,264.791z"/>
<path fill="#00C07C" d="M183.98,249.832c-4.132,0-7.478,3.349-7.478,7.477c0,4.133,3.345,7.482,7.478,7.482h13.068
	c4.132,0,7.481-3.35,7.481-7.482c0-4.128-3.349-7.477-7.481-7.477H183.98z"/>
<path fill="#00C07C" d="M164.296,257.309c0-4.128-3.349-7.477-7.478-7.477H92.624c-4.133,0-7.478,3.349-7.478,7.477
	c0,4.133,3.345,7.482,7.478,7.482h64.195C160.947,264.791,164.296,261.441,164.296,257.309z"/>
<path fill="#00C07C" d="M213.287,257.309c0,4.133,3.349,7.482,7.478,7.482h24.479c4.133,0,7.481-3.35,7.481-7.482
	c0-4.128-3.349-7.477-7.481-7.477h-24.479C216.636,249.832,213.287,253.18,213.287,257.309z"/>
<path fill="#00C07C" d="M172.558,164.443h25.821c4.132,0,7.481-3.349,7.481-7.481c0-4.128-3.349-7.478-7.481-7.478h-25.821
	c-4.133,0-7.481,3.349-7.481,7.478C165.076,161.095,168.425,164.443,172.558,164.443z"/>
<path fill="#00C07C" d="M227.298,164.443h157.547c4.133,0,7.478-3.349,7.478-7.481c0-4.128-3.345-7.478-7.478-7.478H227.298
	c-4.133,0-7.481,3.349-7.481,7.478C219.817,161.095,223.166,164.443,227.298,164.443z"/>
<path fill="#00C07C" d="M360.916,182.389h-63.82c-4.129,0-7.478,3.349-7.478,7.482c0,4.128,3.349,7.478,7.478,7.478h63.82
	c4.129,0,7.478-3.349,7.478-7.478C368.394,185.738,365.045,182.389,360.916,182.389z"/>
<path fill="#00C07C" d="M273.166,182.389h-21.938c-4.132,0-7.478,3.349-7.478,7.482c0,4.128,3.345,7.478,7.478,7.478h21.938
	c4.133,0,7.478-3.349,7.478-7.478C280.644,185.738,277.299,182.389,273.166,182.389z"/>
<path fill="#00C07C" d="M172.558,197.348H226.3c4.128,0,7.478-3.349,7.478-7.478c0-4.133-3.349-7.482-7.478-7.482h-53.743
	c-4.133,0-7.481,3.349-7.481,7.482C165.076,193.999,168.425,197.348,172.558,197.348z"/>
<path fill="#00C07C" d="M156.912,281.11h-50.378c-4.133,0-7.481,3.349-7.481,7.478s3.349,7.478,7.481,7.478h50.378
	c4.129,0,7.478-3.349,7.478-7.478S161.041,281.11,156.912,281.11z"/>
<path fill="#00C07C" d="M83.626,281.11H44.92c-4.132,0-7.478,3.349-7.478,7.478s3.345,7.478,7.478,7.478h38.706
	c4.132,0,7.478-3.349,7.478-7.478S87.758,281.11,83.626,281.11z"/>
<path fill="#00C07C" d="M248.238,281.11h-65.813c-4.132,0-7.478,3.349-7.478,7.478s3.345,7.478,7.478,7.478h65.813
	c4.129,0,7.478-3.349,7.478-7.478S252.367,281.11,248.238,281.11z"/>
<path fill="#00C07C" d="M337.24,242.693h-35.988c-4.129,0-7.479,3.349-7.479,7.478c0,4.133,3.35,7.482,7.479,7.482h35.988
	c4.132,0,7.478-3.349,7.478-7.482C344.718,246.042,341.372,242.693,337.24,242.693z"/>
<path fill="#00C07C" d="M399.688,257.652h50.803c4.133,0,7.481-3.349,7.481-7.482c0-4.128-3.349-7.478-7.481-7.478h-50.803
	c-4.133,0-7.478,3.349-7.478,7.478C392.211,254.303,395.56,257.652,399.688,257.652z"/>
<path fill="#00C07C" d="M374.284,242.693h-11.641c-4.133,0-7.481,3.349-7.481,7.478c0,4.133,3.349,7.482,7.481,7.482h11.641
	c4.133,0,7.479-3.349,7.479-7.482C381.763,246.042,378.417,242.693,374.284,242.693z"/>
<path fill="#00C07C" d="M301.252,339.149h35.988c4.132,0,7.478-3.345,7.478-7.478c0-4.129-3.346-7.479-7.478-7.479h-35.988
	c-4.129,0-7.479,3.35-7.479,7.479C293.773,335.805,297.123,339.149,301.252,339.149z"/>
<path fill="#00C07C" d="M399.688,339.149h50.803c4.133,0,7.481-3.345,7.481-7.478c0-4.129-3.349-7.479-7.481-7.479h-50.803
	c-4.133,0-7.478,3.35-7.478,7.479C392.211,335.805,395.56,339.149,399.688,339.149z"/>
<path fill="#00C07C" d="M362.644,339.149h11.641c4.133,0,7.482-3.345,7.482-7.478c0-4.129-3.35-7.479-7.482-7.479h-11.641
	c-4.133,0-7.478,3.35-7.478,7.479C355.166,335.805,358.511,339.149,362.644,339.149z"/>
<path fill="#00C07C" d="M337.24,405.695h-35.988c-4.129,0-7.479,3.349-7.479,7.478c0,4.128,3.35,7.478,7.479,7.478h35.988
	c4.132,0,7.478-3.35,7.478-7.478C344.718,409.044,341.372,405.695,337.24,405.695z"/>
<path fill="#00C07C" d="M450.491,405.695h-50.803c-4.133,0-7.478,3.349-7.478,7.478c0,4.128,3.345,7.478,7.478,7.478h50.803
	c4.133,0,7.481-3.35,7.481-7.478C457.973,409.044,454.624,405.695,450.491,405.695z"/>
<path fill="#00C07C" d="M374.284,405.695h-11.641c-4.133,0-7.481,3.349-7.481,7.478c0,4.128,3.349,7.478,7.481,7.478h11.641
	c4.133,0,7.479-3.35,7.479-7.478C381.763,409.044,378.417,405.695,374.284,405.695z"/>
<path fill="#00C07C" d="M478.09,0.997H32.916C14.768,0.997,0,15.761,0,33.913v361.86c0,18.147,14.768,32.912,32.916,32.912h28.145
	c4.128,0,7.478-3.346,7.478-7.478c0-4.129-3.349-7.478-7.478-7.478H32.916c-9.902,0-17.957-8.055-17.957-17.957v-28.371h272.464
	v12.889h-5.93c-8.112,0-14.71,6.598-14.71,14.71v18.729H106.53c-4.129,0-7.478,3.349-7.478,7.478c0,4.132,3.349,7.478,7.478,7.478
	h71.906v26.822h-22.581c-15.064,0-27.318,12.258-27.318,27.317v16.156c0,6.873,5.591,12.464,12.464,12.464h228.429
	c6.873,0,12.464-5.591,12.464-12.464v-16.156c0-15.06-12.253-27.317-27.317-27.317h-22.581v-9.454h138.258
	c8.108,0,14.705-6.597,14.705-14.71v-3.521c14.577-3.384,25.474-16.464,25.474-32.05l0.565-361.864
	C511.002,15.761,496.238,0.997,478.09,0.997z M281.742,349.598V313.75h188.262v35.848H281.742z M302.379,298.791v-15.735h146.985
	v15.735H302.379z M449.364,364.553v15.738H302.379v-15.738H449.364z M193.392,428.686h73.392v2.662
	c0,8.109,6.598,14.706,14.71,14.706h35.548v9.454H193.392V428.686z M354.581,470.467c6.814,0,12.358,5.544,12.358,12.358v13.665
	H143.493v-13.665c0-6.814,5.548-12.358,12.363-12.358H354.581z M470.004,431.095H281.742V395.25h188.262V431.095z M495.478,395.773
	c0,7.243-4.319,13.485-10.515,16.319v-17.096c0-8.108-6.601-14.706-14.709-14.706h-5.931v-12.889h31.154V395.773z M495.478,352.447
	h-10.76c0.151-0.846,0.245-38.947,0.245-38.947c0-8.113-6.601-14.709-14.709-14.709h-5.931v-15.735h5.931
	c8.108,0,14.709-6.601,14.709-14.71v-36.347c0-8.109-6.601-14.709-14.709-14.709h-42.242c-4.133,0-7.478,3.349-7.478,7.481
	c0,4.128,3.345,7.478,7.478,7.478h41.992v35.848H281.742v-35.848h99.735c4.133,0,7.478-3.349,7.478-7.478
	c0-4.132-3.345-7.481-7.478-7.481h-99.984c-8.112,0-14.71,6.6-14.71,14.709v36.347c0,8.109,6.598,14.71,14.71,14.71h5.93v15.735
	h-5.93c-8.112,0-14.71,6.6-14.71,14.709c0,0,0.094,38.102,0.246,38.947H14.959V102.728h480.519V352.447z M495.478,87.769H15.509
	v-53.86c0-9.898,8.055-17.953,17.957-17.953h444.055c9.902,0,17.957,8.055,17.957,17.957V87.769z"/>
<path fill="#00C07C" d="M55.154,29.703c-12.101,0-21.945,9.844-21.945,21.945c0,12.102,9.844,21.95,21.945,21.95
	c12.102,0,21.95-9.848,21.95-21.95C77.104,39.547,67.255,29.703,55.154,29.703z M55.154,58.639c-3.852,0-6.99-3.135-6.99-6.991
	c0-3.852,3.139-6.99,6.99-6.99c3.856,0,6.99,3.139,6.99,6.99C62.144,55.504,59.01,58.639,55.154,58.639z"/>
<path fill="#00C07C" d="M111.033,29.703c-12.102,0-21.949,9.844-21.949,21.945c0,12.102,9.848,21.95,21.949,21.95
	s21.945-9.848,21.945-21.95C132.979,39.547,123.131,29.703,111.033,29.703z M111.033,58.639c-3.856,0-6.99-3.135-6.99-6.991
	c0-3.852,3.134-6.99,6.99-6.99c3.852,0,6.99,3.139,6.99,6.99C118.023,55.504,114.885,58.639,111.033,58.639z"/>
<path fill="#00C07C" d="M166.908,29.703c-12.101,0-21.945,9.844-21.945,21.945c0,12.102,9.844,21.95,21.945,21.95
	c12.102,0,21.95-9.848,21.95-21.95C188.858,39.547,179.01,29.703,166.908,29.703z M166.908,58.639c-3.852,0-6.99-3.135-6.99-6.991
	c0-3.852,3.139-6.99,6.99-6.99c3.856,0,6.99,3.139,6.99,6.99C173.898,55.504,170.764,58.639,166.908,58.639z"/>
</svg>
