<svg xmlns="http://www.w3.org/2000/svg" xmlns:xlink="http://www.w3.org/1999/xlink" id="Layer_1" width="560" height="590" x="0" y="0" enable-background="new 0 0 560 590" version="1.1" viewBox="0 0 560 590" xml:space="preserve"><path fill="#00C07C" d="M345.625,393.438c-6.037,0-10.938,4.9-10.938,10.938s4.9,10.938,10.938,10.938s10.938-4.9,10.938-10.938	S351.662,393.438,345.625,393.438z"/><path fill="#00C07C" d="M505.313,15H54.688C24.532,15,0,39.532,0,69.688v334.688c0,30.155,24.532,54.688,54.688,54.688h170.625	v50.313h-10.938c-14.604,0-28.331,5.691-38.666,16.021c-10.331,10.335-16.021,24.063-16.021,38.666	c0,6.041,4.896,10.938,10.938,10.938h218.75c6.041,0,10.938-4.896,10.938-10.938c0-30.155-24.532-54.688-54.688-54.688h-10.938	v-50.313h170.625c30.155,0,54.688-24.532,54.688-54.688V69.688C560,39.532,535.468,15,505.313,15z M54.688,36.875h450.625	c18.094,0,32.813,14.719,32.813,32.813v280h-50.313V98.125c0-6.041-4.896-10.938-10.938-10.938h-87.5	c-6.041,0-10.938,4.896-10.938,10.938v251.563H323.69c-0.115-11.313-0.41-22.465-0.88-33.282	c-1.914-44.545-6.276-74.384-8.545-87.509c22.566-16.616,28.728-47.412,14.932-71.337L291.288,91.9	c-1.957-3.384-5.567-5.469-9.472-5.469c-3.91,0-7.52,2.085-9.473,5.469l-37.927,65.664c-13.005,22.559-8.396,51.778,12.036,69.021	c-2.367,13.087-7.144,43.994-9.22,89.799c-0.491,10.933-0.803,22.093-0.923,33.304h-54.747V185.625c0-1.734-0.41-3.315-1.081-4.721	c-0.03-0.055-0.047-0.115-0.072-0.171l-43.75-87.5c-1.854-3.704-5.64-6.045-9.784-6.045s-7.93,2.341-9.784,6.045l-43.75,87.5	c-0.025,0.056-0.042,0.116-0.068,0.171c-0.684,1.418-1.085,3.025-1.085,4.721v164.063H21.875v-280	C21.875,51.594,36.594,36.875,54.688,36.875z M400.313,349.688V109.063h65.625v21.875H455c-6.041,0-10.938,4.896-10.938,10.938	s4.896,10.938,10.938,10.938h10.938v32.813H455c-6.041,0-10.938,4.896-10.938,10.938S448.959,207.5,455,207.5h10.938v32.813H455	c-6.041,0-10.938,4.896-10.938,10.938s4.896,10.938,10.938,10.938h10.938v43.75H455c-6.041,0-10.938,4.896-10.938,10.938	s4.896,10.938,10.938,10.938h10.938v21.875H400.313z M281.816,239.556c3.973,0,7.93-0.457,11.8-1.312	c2.029,13.01,5.012,36.03,6.776,67.693H259.68c1.85-31.642,4.973-55.021,7.131-68.471	C271.656,238.847,276.702,239.556,281.816,239.556z M281.816,217.681c-24.999,0-41.119-27.207-28.451-49.185l28.451-49.253	l28.433,49.249C322.87,190.38,306.972,217.681,281.816,217.681z M258.676,327.813h42.677c0.23,7.187,0.389,14.496,0.466,21.875	h-43.635C258.266,342.355,258.433,335.046,258.676,327.813z M137.813,349.688V196.563h21.875v153.125H137.813z M94.063,349.688	V196.563h21.875v153.125H94.063z M100.821,174.688l26.054-52.107l26.054,52.107H100.821z M376.562,553.125H183.425	c1.606-4.559,4.23-8.737,7.75-12.262c6.203-6.199,14.44-9.613,23.199-9.613h131.25C359.887,531.25,372.05,540.393,376.562,553.125z M312.813,509.375h-65.625v-50.313h65.625V509.375z M505.313,437.188H54.688c-18.094,0-32.813-14.719-32.813-32.813v-32.813h516.25	v32.813C538.125,422.469,523.406,437.188,505.313,437.188z"/><path fill="#00C07C" d="M301.875,393.438H236.25c-6.041,0-10.938,4.896-10.938,10.938s4.896,10.938,10.938,10.938h65.625	c6.041,0,10.938-4.896,10.938-10.938S307.916,393.438,301.875,393.438z"/></svg>