<svg xmlns="http://www.w3.org/2000/svg" xmlns:xlink="http://www.w3.org/1999/xlink" id="Layer_1" width="496" height="496" x="0" y="0" enable-background="new 0 0 496 496" version="1.1" viewBox="0 0 496 496" xml:space="preserve"><path fill="#00C07C" d="M360,464c17.648,0,32-14.352,32-32s-14.352-32-32-32s-32,14.352-32,32S342.352,464,360,464z M360,416	c8.824,0,16,7.176,16,16s-7.176,16-16,16s-16-7.176-16-16S351.176,416,360,416z"/><path fill="#00C07C" d="M192,400c-17.648,0-32,14.352-32,32s14.352,32,32,32s32-14.352,32-32S209.648,400,192,400z M192,448	c-8.824,0-16-7.176-16-16s7.176-16,16-16s16,7.176,16,16S200.824,448,192,448z"/><path fill="#00C07C" d="M496,272V32H351.09l0.75-6.168C351.945,24.922,352,24,352,23.09C352,10.359,341.641,0,328.91,0h-15.727	l-5.16,32h-64.047l-5.168-32h-15.73C210.359,0,200,10.359,200,23.09c0,0.91,0.055,1.832,0.168,2.773L200.902,32H0v240h230	l1.91,15.762l-10.055,55.316C219.223,357.52,206.672,368,192,368c-35.289,0-64,28.711-64,64s28.711,64,64,64h1.266	c30.941,0,57.422-22.105,62.941-52.457L276,341.398l19.777,102.051C301.313,473.895,327.793,496,358.734,496H360	c35.289,0,64-28.711,64-64s-28.711-64-64-64c-14.672,0-27.223-10.48-29.855-24.91l-10.055-55.328L322,272H496z M280,312	c-13.23,0-24-10.77-24-24s10.77-24,24-24c13.145,0,23.824,10.625,23.977,23.734l-0.055,0.504l0.039,0.219	C303.703,301.48,293.078,312,280,312z M224,48v16h-16V48H224z M277.055,224H184V80h116.289L277.055,224z M272,64V48h16v16H272z M256,64h-16V48h16V64z M192,64h-16V48h16V64z M160,64h-16V48h16V64z M128,64h-16V48h16V64z M96,64H80V48h16V64z M64,64H48V48h16V64	z M80,80v32h16V80h72v144H96v-96H80v96H16V80H80z M64,240v16H48v-16H64z M80,240h16v16H80V240z M112,240h16v16h-16V240z M144,240h16	v16h-16V240z M176,240h16v16h-16V240z M208,240h16v16h-16V240z M240,240h34.48l-1.402,8.703c-6.352,1.121-12.125,3.762-17.07,7.504	V256h-16v-16H240z M345.273,80H400v104h16V80h64v144h-64v-24h-16v24h-72.184L345.273,80z M432,64V48h16v16H432z M416,64h-16V48h16	V64z M384,64h-16V48h16V64z M384,240v16h-16v-16H384z M400,240h16v16h-16V240z M432,240h16v16h-16V240z M325.871,240H352v16h-28.063	L325.871,240z M464,256v-16h16v16H464z M480,64h-16V48h16V64z M352,48v16h-4.793l1.938-16H352z M326.816,16h2.105	c3.902,0,7.078,3.176,7.078,7.09c0,0.293-0.023,0.59-0.055,0.855l-28.496,235.102c-5.035-4.766-11.281-8.223-18.242-9.879	L326.816,16z M304,56.961V48h1.449L304,56.961z M216.055,23.984C216.023,23.68,216,23.383,216,23.09c0-3.914,3.176-7.09,7.09-7.09	h2.102l2.586,16h-10.746L216.055,23.984z M32,48v16H16V48H32z M16,240h16v16H16V240z M240.496,440.586	c-4.16,22.84-24.016,39.414-47.23,39.414H192c-26.473,0-48-21.527-48-48s21.527-48,48-48c22.406,0,41.574-16,45.594-38.055	l7.168-39.426c4.047,7.672,10.43,13.863,18.293,17.578L240.496,440.586z M360,384c26.473,0,48,21.527,48,48s-21.527,48-48,48h-1.266	c-23.207,0-43.07-16.574-47.238-39.504l-22.039-113.742c7.535-1.844,14.23-5.77,19.422-11.219l5.527,30.418	C318.426,368,337.594,384,360,384z"/><path fill="#00C07C" d="M208,105.047v93.898L278.426,152L208,105.047z M224,134.953L249.574,152L224,169.047V134.953z"/></svg>