<svg xmlns="http://www.w3.org/2000/svg" xmlns:xlink="http://www.w3.org/1999/xlink" id="Capa_1" width="560" height="590" x="0" y="0" enable-background="new 0 0 560 590" version="1.1" viewBox="0 0 560 590" xml:space="preserve"><g><g><path fill="#00C07C" d="M549.063,26.21H10.938C4.896,26.21,0,31.107,0,37.147v112.501c0,6.04,4.896,10.938,10.938,10.938h538.125 c6.041,0,10.938-4.898,10.938-10.938V37.147C560,31.107,555.104,26.21,549.063,26.21z M538.125,138.711H21.875V48.085h516.25 V138.711z"/></g></g><g><g><path fill="#00C07C" d="M513.415,113.868l-8.933-8.933c2.438-4.821,3.736-10.179,3.736-15.737c0-9.333-3.635-18.109-10.234-24.709 c-13.623-13.623-35.79-13.624-49.415,0c-6.6,6.6-10.234,15.376-10.234,24.709s3.636,18.109,10.234,24.708 c6.601,6.6,15.376,10.234,24.709,10.234c5.56,0,10.915-1.299,15.736-3.736l8.933,8.933c2.137,2.135,4.936,3.204,7.734,3.204 s5.599-1.069,7.733-3.204C517.687,125.066,517.687,118.14,513.415,113.868z M482.518,98.438c-2.467,2.469-5.748,3.828-9.239,3.828 s-6.771-1.359-9.24-3.828c-2.468-2.469-3.828-5.749-3.828-9.239s1.36-6.772,3.828-9.24c2.547-2.547,5.895-3.82,9.24-3.82 s6.692,1.273,9.239,3.82c2.468,2.469,3.828,5.75,3.828,9.24S484.986,95.97,482.518,98.438z"/></g></g><g><g><path fill="#00C07C" d="M391.934,111.065c-0.142-0.701-0.35-1.39-0.623-2.045c-0.273-0.657-0.612-1.302-1.006-1.892 c-0.395-0.591-0.854-1.16-1.356-1.663s-1.062-0.962-1.663-1.356c-0.59-0.394-1.225-0.732-1.892-1.006 c-0.656-0.273-1.346-0.481-2.046-0.624c-1.41-0.285-2.865-0.285-4.276,0c-0.7,0.142-1.389,0.35-2.045,0.624 s-1.291,0.612-1.882,1.006c-0.602,0.394-1.159,0.854-1.673,1.356c-0.503,0.503-0.952,1.071-1.356,1.663 c-0.394,0.59-0.732,1.236-1.006,1.892s-0.481,1.344-0.624,2.045c-0.142,0.709-0.208,1.422-0.208,2.144 c0,0.71,0.066,1.422,0.208,2.133c0.143,0.7,0.351,1.389,0.624,2.044c0.273,0.657,0.612,1.292,1.006,1.892 c0.404,0.59,0.854,1.159,1.356,1.663c0.514,0.503,1.071,0.963,1.673,1.356c0.591,0.394,1.226,0.733,1.882,1.006 c0.667,0.273,1.356,0.481,2.045,0.624c0.711,0.142,1.433,0.208,2.144,0.208s1.434-0.066,2.133-0.208 c0.7-0.141,1.39-0.35,2.046-0.624s1.302-0.612,1.892-1.006c0.602-0.393,1.16-0.853,1.663-1.356 c2.034-2.044,3.204-4.855,3.204-7.732C392.152,112.487,392.076,111.774,391.934,111.065z"/></g></g><g><g><path fill="#00C07C" d="M339.747,102.266H112.431c-6.041,0-10.938,4.898-10.938,10.938s4.896,10.938,10.938,10.938h227.316 c6.041,0,10.938-4.898,10.938-10.938S345.788,102.266,339.747,102.266z"/></g></g><g><g><path fill="#00C07C" d="M344.334,176.179H12.229c-6.041,0-10.938,4.898-10.938,10.938v215.686c0,6.041,4.897,10.938,10.938,10.938 h332.105c6.041,0,10.938-4.897,10.938-10.938V187.116C355.271,181.077,350.375,176.179,344.334,176.179z M133.225,391.863H40.387 l62.524-72.391l45.281,52.434L133.225,391.863z M160.568,391.863l20.394-27.191h53.035c6.041,0,10.938-4.898,10.938-10.938 c0-6.04-4.897-10.938-10.938-10.938H197.37l7.674-10.23h68.675l44.477,59.297H160.568z M221.449,310.691l17.932-23.909 l17.932,23.909H221.449z M333.396,375.674L248.13,261.99c-2.066-2.754-5.308-4.375-8.75-4.375s-6.684,1.621-8.75,4.375 l-69.004,92.004l-50.437-58.406c-2.077-2.405-5.099-3.788-8.277-3.788s-6.199,1.383-8.277,3.788l-71.468,82.746v-180.28h310.23 V375.674z"/></g></g><g><g><path fill="#00C07C" d="M150.552,210.612c-21.321,0-38.667,17.346-38.667,38.667s17.347,38.667,38.667,38.667 c21.322,0,38.667-17.346,38.667-38.667S171.874,210.612,150.552,210.612z M150.552,266.073c-9.259,0-16.792-7.533-16.792-16.792 s7.534-16.792,16.792-16.792c9.259,0,16.792,7.532,16.792,16.792S159.812,266.073,150.552,266.073z"/></g></g><g><g><path fill="#00C07C" d="M549.063,176.179H380.965c-6.041,0-10.938,4.898-10.938,10.938v215.686c0,6.04,4.896,10.938,10.938,10.938 h168.098c6.041,0,10.938-4.897,10.938-10.938V187.116C560,181.077,555.104,176.179,549.063,176.179z M538.125,391.864H391.902 V198.054h146.223V391.864z"/></g></g><g><g><path fill="#00C07C" d="M512.659,216.069h-95.291c-6.041,0-10.938,4.898-10.938,10.938s4.896,10.938,10.938,10.938h95.291 c6.041,0,10.938-4.898,10.938-10.938S518.7,216.069,512.659,216.069z"/></g></g><g><g><path fill="#00C07C" d="M512.659,259.965h-95.291c-6.041,0-10.938,4.897-10.938,10.937c0,6.04,4.896,10.938,10.938,10.938h95.291 c6.041,0,10.938-4.897,10.938-10.938C523.597,264.863,518.7,259.965,512.659,259.965z"/></g></g><g><g><path fill="#00C07C" d="M512.659,303.861h-95.291c-6.041,0-10.938,4.898-10.938,10.938c0,6.04,4.896,10.938,10.938,10.938h95.291 c6.041,0,10.938-4.897,10.938-10.938C523.597,308.76,518.7,303.861,512.659,303.861z"/></g></g><g><g><path fill="#00C07C" d="M428.093,356.557c-0.142-0.701-0.35-1.391-0.623-2.046c-0.273-0.657-0.612-1.292-1.006-1.892 c-0.405-0.592-0.854-1.16-1.367-1.663c-2.538-2.538-6.312-3.709-9.866-2.985c-0.7,0.142-1.389,0.35-2.045,0.623 s-1.291,0.612-1.893,1.006c-0.591,0.395-1.159,0.854-1.662,1.356s-0.963,1.071-1.356,1.663c-0.394,0.602-0.732,1.235-1.006,1.892 s-0.481,1.345-0.624,2.046c-0.142,0.709-0.219,1.422-0.219,2.131c0,0.723,0.077,1.434,0.219,2.145 c0.143,0.701,0.351,1.39,0.624,2.046c0.273,0.657,0.612,1.292,1.006,1.892c0.394,0.592,0.854,1.16,1.356,1.663 s1.071,0.962,1.662,1.356c0.602,0.394,1.236,0.732,1.893,1.006s1.345,0.481,2.045,0.623c0.711,0.143,1.422,0.219,2.144,0.219 c2.877,0,5.688-1.17,7.723-3.205c0.503-0.504,0.962-1.07,1.367-1.662c0.394-0.602,0.732-1.236,1.006-1.893 s0.481-1.344,0.623-2.045c0.143-0.711,0.208-1.422,0.208-2.145C428.301,357.979,428.235,357.266,428.093,356.557z"/></g></g><g><g><path fill="#00C07C" d="M512.659,347.757h-53.827c-6.041,0-10.938,4.897-10.938,10.938s4.896,10.938,10.938,10.938h53.827 c6.041,0,10.938-4.897,10.938-10.938S518.7,347.757,512.659,347.757z"/></g></g><g><g><path fill="#00C07C" d="M180.327,429.257H12.229c-6.041,0-10.938,4.898-10.938,10.938v112.658c0,6.04,4.897,10.938,10.938,10.938 h168.098c6.041,0,10.938-4.897,10.938-10.938V440.194C191.265,434.155,186.368,429.257,180.327,429.257z M169.39,541.915H23.167 v-90.783H169.39V541.915z"/></g></g><g><g><path fill="#00C07C" d="M549.063,429.257H218.452c-6.041,0-10.938,4.898-10.938,10.938v112.658c0,6.04,4.897,10.938,10.938,10.938 h330.611c6.041,0,10.938-4.897,10.938-10.938V440.194C560,434.155,555.104,429.257,549.063,429.257z M538.125,541.915H229.389 v-90.783h308.736V541.915z"/></g></g><g><g><path fill="#00C07C" d="M279.212,494.391c-0.142-0.698-0.35-1.389-0.624-2.045c-0.273-0.667-0.612-1.301-1.006-1.892 c-0.394-0.603-0.854-1.16-1.356-1.663s-1.061-0.963-1.663-1.356c-0.59-0.393-1.225-0.732-1.892-1.006 c-0.656-0.273-1.345-0.492-2.045-0.635c-1.411-0.273-2.866-0.273-4.276,0c-0.689,0.143-1.378,0.361-2.045,0.635 c-0.656,0.273-1.291,0.613-1.881,1.006c-0.602,0.394-1.159,0.854-1.662,1.356c-0.503,0.503-0.963,1.061-1.367,1.663 c-0.394,0.591-0.733,1.225-1.006,1.892c-0.273,0.657-0.481,1.346-0.624,2.045c-0.142,0.7-0.208,1.422-0.208,2.133 c0,0.71,0.066,1.434,0.208,2.133s0.35,1.389,0.624,2.056c0.273,0.656,0.612,1.29,1.006,1.881c0.404,0.602,0.864,1.159,1.367,1.663 c2.034,2.034,4.856,3.205,7.732,3.205c0.711,0,1.433-0.066,2.133-0.208c0.7-0.142,1.389-0.36,2.045-0.634 c0.667-0.273,1.302-0.602,1.892-1.007c0.602-0.393,1.16-0.852,1.663-1.355c0.503-0.503,0.962-1.062,1.356-1.663 c0.394-0.59,0.732-1.225,1.006-1.881c0.273-0.667,0.481-1.356,0.624-2.057c0.142-0.701,0.219-1.423,0.219-2.133 C279.431,495.813,279.354,495.09,279.212,494.391z"/></g></g><g><g><path fill="#00C07C" d="M493.628,485.586H309.955c-6.041,0-10.938,4.898-10.938,10.938c0,6.04,4.896,10.938,10.938,10.938h183.673 c6.041,0,10.938-4.897,10.938-10.938C504.565,490.484,499.669,485.586,493.628,485.586z"/></g></g></svg>